<svg xmlns="http://www.w3.org/2000/svg" xmlns:xlink="http://www.w3.org/1999/xlink" width="375" height="812" viewBox="0 0 375 812">
  <defs>
    <clipPath id="clip-iPhone_X_XS_2">
      <rect width="375" height="812"/>
    </clipPath>
  </defs>
  <g id="iPhone_X_XS_2" data-name="iPhone X/XS – 2" clip-path="url(#clip-iPhone_X_XS_2)">
    <rect width="375" height="812" fill="#fff"/>
    <g id="Group_1" data-name="Group 1">
      <g id="Path_1" data-name="Path 1" fill="#f0f0f0">
        <path d="M 374 49 L 1 49 L 1 1 L 374 1 L 374 49 Z" stroke="none"/>
        <path d="M 2 2 L 2 48 L 373 48 L 373 2 L 2 2 M 0 0 L 375 0 L 375 50 L 0 50 L 0 0 Z" stroke="none" fill="#707070"/>
      </g>
      <g id="Rectangle_2" data-name="Rectangle 2" fill="#f0f0f0" stroke="#707070" stroke-width="2">
        <rect width="100" height="50" stroke="none"/>
        <rect x="1" y="1" width="98" height="48" fill="none"/>
      </g>
      <text id="LOGO" transform="translate(16 34)" fill="#707070" font-size="24" font-family="HelveticaNeue, Helvetica Neue"><tspan x="0" y="0">LOGO</tspan></text>
      <line id="Line_1" data-name="Line 1" x1="40" transform="translate(319.5 25.5)" fill="none" stroke="#707070" stroke-width="5"/>
      <line id="Line_2" data-name="Line 2" x1="40" transform="translate(319.5 14.5)" fill="none" stroke="#707070" stroke-width="5"/>
      <line id="Line_3" data-name="Line 3" x1="40" transform="translate(319.5 36.5)" fill="none" stroke="#707070" stroke-width="5"/>
    </g>
    <g id="Group_2" data-name="Group 2">
      <g id="Rectangle_3" data-name="Rectangle 3" transform="translate(0 50)" fill="#f0f0f0" stroke="#707070" stroke-width="2">
        <rect width="188" height="50" stroke="none"/>
        <rect x="1" y="1" width="186" height="48" fill="none"/>
      </g>
      <g id="Rectangle_4" data-name="Rectangle 4" transform="translate(187 50)" fill="#fcfcfc" stroke="#707070" stroke-width="2">
        <rect width="188" height="50" stroke="none"/>
        <rect x="1" y="1" width="186" height="48" fill="none"/>
      </g>
      <text id="Rent" transform="translate(69 84)" fill="#707070" font-size="24" font-family="HelveticaNeue, Helvetica Neue"><tspan x="0" y="0">Rent</tspan></text>
      <text id="Rent_Out" data-name="Rent Out" transform="translate(233 84)" fill="#707070" font-size="24" font-family="HelveticaNeue, Helvetica Neue"><tspan x="0" y="0">Rent Out</tspan></text>
    </g>
    <text id="Sign_up" data-name="Sign up" transform="translate(188 151)" fill="#707070" font-size="32" font-family="HelveticaNeue-Bold, Helvetica Neue" font-weight="700"><tspan x="-57.488" y="0">Sign up</tspan></text>
    <g id="Group_4" data-name="Group 4" transform="translate(0 408)">
      <g id="Rectangle_6" data-name="Rectangle 6" transform="translate(46 294)" fill="#f0f0f0" stroke="#707070" stroke-width="2">
        <rect width="284" height="70" rx="35" stroke="none"/>
        <rect x="1" y="1" width="282" height="68" rx="34" fill="none"/>
      </g>
      <text id="Sign_up-2" data-name="Sign up" transform="translate(193 341)" fill="#707070" font-size="32" font-family="HelveticaNeue-Bold, Helvetica Neue" font-weight="700"><tspan x="-57.488" y="0">Sign up</tspan></text>
    </g>
    <g id="Group_5" data-name="Group 5">
      <g id="Rectangle_7" data-name="Rectangle 7" transform="translate(13 178)" fill="#fff" stroke="#707070" stroke-width="2">
        <rect width="174.5" height="50" rx="18" stroke="none"/>
        <rect x="1" y="1" width="172.5" height="48" rx="17" fill="none"/>
      </g>
      <text id="First_Name" data-name="First Name" transform="translate(22 215)" fill="#707070" font-size="32" font-family="HelveticaNeue, Helvetica Neue"><tspan x="0" y="0">First Name</tspan></text>
    </g>
    <g id="Group_7" data-name="Group 7">
      <g id="Rectangle_8" data-name="Rectangle 8" transform="translate(13 242)" fill="#fff" stroke="#707070" stroke-width="2">
        <rect width="350" height="50" rx="18" stroke="none"/>
        <rect x="1" y="1" width="348" height="48" rx="17" fill="none"/>
      </g>
      <text id="Address" transform="translate(33 279)" fill="#707070" font-size="32" font-family="HelveticaNeue, Helvetica Neue"><tspan x="0" y="0">Address</tspan></text>
    </g>
    <g id="Group_8" data-name="Group 8">
      <g id="Rectangle_9" data-name="Rectangle 9" transform="translate(13 306)" fill="#fff" stroke="#707070" stroke-width="2">
        <rect width="350" height="50" rx="18" stroke="none"/>
        <rect x="1" y="1" width="348" height="48" rx="17" fill="none"/>
      </g>
      <text id="Phone_Number" data-name="Phone Number" transform="translate(33 343)" fill="#707070" font-size="32" font-family="HelveticaNeue, Helvetica Neue"><tspan x="0" y="0">Phone Number</tspan></text>
    </g>
    <g id="Group_9" data-name="Group 9">
      <g id="Rectangle_10" data-name="Rectangle 10" transform="translate(13 370)" fill="#fff" stroke="#707070" stroke-width="2">
        <rect width="350" height="50" rx="18" stroke="none"/>
        <rect x="1" y="1" width="348" height="48" rx="17" fill="none"/>
      </g>
      <text id="E-mail" transform="translate(33 407)" fill="#707070" font-size="32" font-family="HelveticaNeue, Helvetica Neue"><tspan x="0" y="0">E-mail</tspan></text>
    </g>
    <g id="Group_6" data-name="Group 6">
      <g id="Rectangle_11" data-name="Rectangle 11" transform="translate(195 178)" fill="#fff" stroke="#707070" stroke-width="2">
        <rect width="168" height="50" rx="18" stroke="none"/>
        <rect x="1" y="1" width="166" height="48" rx="17" fill="none"/>
      </g>
      <text id="Last_Name" data-name="Last Name" transform="translate(206 215)" fill="#707070" font-size="30" font-family="HelveticaNeue, Helvetica Neue"><tspan x="0" y="0">Last</tspan><tspan y="0" font-size="32"> </tspan><tspan y="0">Name</tspan></text>
    </g>
    <g id="Group_10" data-name="Group 10">
      <g id="Rectangle_12" data-name="Rectangle 12" transform="translate(13 428)" fill="#fff" stroke="#707070" stroke-width="2">
        <rect width="350" height="50" rx="18" stroke="none"/>
        <rect x="1" y="1" width="348" height="48" rx="17" fill="none"/>
      </g>
      <text id="Password" transform="translate(33 465)" fill="#707070" font-size="32" font-family="HelveticaNeue, Helvetica Neue"><tspan x="0" y="0">Password</tspan></text>
    </g>
    <g id="Group_11" data-name="Group 11">
      <g id="Rectangle_13" data-name="Rectangle 13" transform="translate(13 492)" fill="#fff" stroke="#707070" stroke-width="2">
        <rect width="350" height="50" rx="18" stroke="none"/>
        <rect x="1" y="1" width="348" height="48" rx="17" fill="none"/>
      </g>
      <text id="Re-enter_Password" data-name="Re-enter Password" transform="translate(33 529)" fill="#707070" font-size="32" font-family="HelveticaNeue, Helvetica Neue"><tspan x="0" y="0">Re-enter Password</tspan></text>
    </g>
    <g id="Group_12" data-name="Group 12">
      <g id="Rectangle_14" data-name="Rectangle 14" transform="translate(13 550)" fill="#fff" stroke="#707070" stroke-width="2">
        <rect width="350" height="139.312" rx="18" stroke="none"/>
        <rect x="1" y="1" width="348" height="137.312" rx="17" fill="none"/>
      </g>
      <text id="Bio." transform="translate(33 587)" fill="#707070" font-size="32" font-family="HelveticaNeue, Helvetica Neue"><tspan x="0" y="0">Bio.</tspan></text>
    </g>
  </g>
</svg>
