<svg xmlns="http://www.w3.org/2000/svg" xmlns:xlink="http://www.w3.org/1999/xlink" width="375" height="812" viewBox="0 0 375 812">
  <defs>
    <clipPath id="clip-iPhone_X_XS_4">
      <rect width="375" height="812"/>
    </clipPath>
  </defs>
  <g id="iPhone_X_XS_4" data-name="iPhone X/XS – 4" clip-path="url(#clip-iPhone_X_XS_4)">
    <rect width="375" height="812" fill="#fff"/>
    <g id="Group_1" data-name="Group 1">
      <g id="Path_1" data-name="Path 1" fill="#f0f0f0">
        <path d="M 374 49 L 1 49 L 1 1 L 374 1 L 374 49 Z" stroke="none"/>
        <path d="M 2 2 L 2 48 L 373 48 L 373 2 L 2 2 M 0 0 L 375 0 L 375 50 L 0 50 L 0 0 Z" stroke="none" fill="#707070"/>
      </g>
      <g id="Rectangle_2" data-name="Rectangle 2" fill="#f0f0f0" stroke="#707070" stroke-width="2">
        <rect width="100" height="50" stroke="none"/>
        <rect x="1" y="1" width="98" height="48" fill="none"/>
      </g>
      <text id="LOGO" transform="translate(16 34)" fill="#707070" font-size="24" font-family="HelveticaNeue, Helvetica Neue"><tspan x="0" y="0">LOGO</tspan></text>
      <line id="Line_1" data-name="Line 1" x1="40" transform="translate(319.5 25.5)" fill="none" stroke="#707070" stroke-width="5"/>
      <line id="Line_2" data-name="Line 2" x1="40" transform="translate(319.5 14.5)" fill="none" stroke="#707070" stroke-width="5"/>
      <line id="Line_3" data-name="Line 3" x1="40" transform="translate(319.5 36.5)" fill="none" stroke="#707070" stroke-width="5"/>
    </g>
    <g id="Group_2" data-name="Group 2">
      <g id="Rectangle_3" data-name="Rectangle 3" transform="translate(0 50)" fill="#f0f0f0" stroke="#707070" stroke-width="2">
        <rect width="188" height="50" stroke="none"/>
        <rect x="1" y="1" width="186" height="48" fill="none"/>
      </g>
      <g id="Rectangle_4" data-name="Rectangle 4" transform="translate(187 50)" fill="#fcfcfc" stroke="#707070" stroke-width="2">
        <rect width="188" height="50" stroke="none"/>
        <rect x="1" y="1" width="186" height="48" fill="none"/>
      </g>
      <text id="Rent" transform="translate(69 84)" fill="#707070" font-size="24" font-family="HelveticaNeue, Helvetica Neue"><tspan x="0" y="0">Rent</tspan></text>
      <text id="Rent_Out" data-name="Rent Out" transform="translate(233 84)" fill="#707070" font-size="24" font-family="HelveticaNeue, Helvetica Neue"><tspan x="0" y="0">Rent Out</tspan></text>
    </g>
    <g id="Group_4" data-name="Group 4" transform="translate(-5 408)">
      <g id="Path_7" data-name="Path 7" transform="translate(28 294)" fill="#f0f0f0">
        <path d="M 295 69 L 35 69 C 30.40958404541016 69 25.95704078674316 68.10116577148438 21.76595878601074 66.32854461669922 C 17.71741676330566 64.61612701416016 14.08120822906494 62.16445922851562 10.95837497711182 59.0416259765625 C 7.835541725158691 55.91879272460938 5.383874893188477 52.28258514404297 3.67145824432373 48.23404312133789 C 1.898833274841309 44.0429573059082 1 39.59041595458984 1 35 C 1 30.40958404541016 1.898833274841309 25.95704078674316 3.67145824432373 21.76595878601074 C 5.383874893188477 17.71741676330566 7.835541725158691 14.08120822906494 10.95837497711182 10.95837497711182 C 14.08120822906494 7.835541725158691 17.71741676330566 5.383874893188477 21.76595878601074 3.67145824432373 C 25.95704078674316 1.898833274841309 30.40958404541016 1 35 1 L 295 1 C 299.5904235839844 1 304.04296875 1.898833274841309 308.2340393066406 3.67145824432373 C 312.2825927734375 5.383874893188477 315.9187927246094 7.835541725158691 319.0416259765625 10.95837497711182 C 322.1644592285156 14.08120822906494 324.6161193847656 17.71741676330566 326.3285522460938 21.76595878601074 C 328.1011657714844 25.95704078674316 329 30.40958404541016 329 35 C 329 39.59041595458984 328.1011657714844 44.0429573059082 326.3285522460938 48.23404312133789 C 324.6161193847656 52.28258514404297 322.1644592285156 55.91879272460938 319.0416259765625 59.0416259765625 C 315.9187927246094 62.16445922851562 312.2825927734375 64.61612701416016 308.2340393066406 66.32854461669922 C 304.04296875 68.10116577148438 299.5904235839844 69 295 69 Z" stroke="none"/>
        <path d="M 35 2 C 30.54415893554688 2 26.22262573242188 2.87225341796875 22.15554809570312 4.592498779296875 C 18.22616577148438 6.254459381103516 14.69677734375 8.634166717529297 11.66549682617188 11.66550064086914 C 8.6341552734375 14.69679260253906 6.25445556640625 18.22616577148438 4.592498779296875 22.15554046630859 C 2.87225341796875 26.22262573242188 2 30.54416656494141 2 35 C 2 39.45583343505859 2.87225341796875 43.77737426757812 4.592498779296875 47.84445953369141 C 6.25445556640625 51.77383422851562 8.6341552734375 55.30320739746094 11.66549682617188 58.33449935913086 C 14.69677734375 61.3658332824707 18.22616577148438 63.74554061889648 22.15554809570312 65.40750122070312 C 26.22262573242188 67.12774658203125 30.54415893554688 68 35 68 L 295 68 C 299.4558410644531 68 303.7773742675781 67.12774658203125 307.8444519042969 65.40750122070312 C 311.7738342285156 63.74554061889648 315.30322265625 61.3658332824707 318.3345031738281 58.33449935913086 C 321.3658447265625 55.30320739746094 323.7455444335938 51.77383422851562 325.4075012207031 47.84445953369141 C 327.1277465820312 43.77737426757812 328 39.45583343505859 328 35 C 328 30.54416656494141 327.1277465820312 26.22262573242188 325.4075012207031 22.15554046630859 C 323.7455444335938 18.22616577148438 321.3658447265625 14.69679260253906 318.3345031738281 11.66550064086914 C 315.30322265625 8.634166717529297 311.7738342285156 6.254459381103516 307.8444519042969 4.592498779296875 C 303.7773742675781 2.87225341796875 299.4558410644531 2 295 2 L 35 2 M 35 0 L 295 0 C 314.3299560546875 0 330 15.67004013061523 330 35 C 330 54.3299560546875 314.3299560546875 70 295 70 L 35 70 C 15.6700439453125 70 0 54.3299560546875 0 35 C 0 15.67004013061523 15.6700439453125 0 35 0 Z" stroke="none" fill="#707070"/>
      </g>
      <text id="Add_item_for_rental" data-name="Add item for rental" transform="translate(193 341)" fill="#707070" font-size="32" font-family="HelveticaNeue-Bold, Helvetica Neue" font-weight="700"><tspan x="-142.176" y="0">Add item for rental</tspan></text>
    </g>
    <g id="Group_23" data-name="Group 23" transform="translate(0 -17)">
      <g id="Group_22" data-name="Group 22">
        <line id="Line_7" data-name="Line 7" y2="24" transform="translate(23.5 130.5)" fill="none" stroke="#707070" stroke-width="3"/>
        <line id="Line_8" data-name="Line 8" x1="330" transform="translate(23.5 154.5)" fill="none" stroke="#707070" stroke-width="3"/>
      </g>
      <text id="Product_Name" data-name="Product Name" transform="translate(29 148)" fill="#707070" font-size="32" font-family="HelveticaNeue-Bold, Helvetica Neue" font-weight="700"><tspan x="0" y="0">Product Name</tspan></text>
    </g>
    <g id="Group_24" data-name="Group 24" transform="translate(-1 132)">
      <g id="Group_22-2" data-name="Group 22">
        <line id="Line_7-2" data-name="Line 7" y2="24" transform="translate(23.5 130.5)" fill="none" stroke="#707070" stroke-width="3"/>
        <line id="Line_8-2" data-name="Line 8" x1="330" transform="translate(23.5 154.5)" fill="none" stroke="#707070" stroke-width="3"/>
      </g>
      <text id="Product_Age" data-name="Product Age" transform="translate(29 148)" fill="#707070" font-size="32" font-family="HelveticaNeue, Helvetica Neue"><tspan x="0" y="0">Product Age</tspan></text>
      <g id="Group_25" data-name="Group 25">
        <line id="Line_7-3" data-name="Line 7" y2="24" transform="translate(23.5 130.5)" fill="none" stroke="#707070" stroke-width="3"/>
        <line id="Line_8-3" data-name="Line 8" x1="330" transform="translate(23.5 154.5)" fill="none" stroke="#707070" stroke-width="3"/>
      </g>
    </g>
    <g id="Group_26" data-name="Group 26" transform="translate(-4 184)">
      <g id="Group_28" data-name="Group 28">
        <g id="Group_22-3" data-name="Group 22" transform="translate(196.951)">
          <line id="Line_7-4" data-name="Line 7" y2="24" transform="translate(23.5 130.5)" fill="none" stroke="#707070" stroke-width="3"/>
          <line id="Line_8-4" data-name="Line 8" x1="133.049" transform="translate(23.5 154.5)" fill="none" stroke="#707070" stroke-width="3"/>
        </g>
        <g id="Group_27" data-name="Group 27">
          <text id="Asking_Price:" data-name="Asking Price:" transform="translate(29 148)" fill="#707070" font-size="32" font-family="HelveticaNeue, Helvetica Neue"><tspan x="0" y="0">Asking Price:</tspan></text>
          <text id="_00.00" data-name="$ 00.00" transform="translate(226 148)" fill="#707070" font-size="32" font-family="HelveticaNeue-Bold, Helvetica Neue" font-weight="700"><tspan x="0" y="0">$ 00.00</tspan></text>
        </g>
      </g>
    </g>
    <text id="_User_will_add_a_series_of_photos_" data-name="(User will add a series of photos)" transform="translate(363 239)" fill="#2f97be" font-size="24" font-family="HelveticaNeue, Helvetica Neue"><tspan x="-349.752" y="0">(User will add a series of photos)</tspan></text>
    <g id="Group_12" data-name="Group 12">
      <g id="Rectangle_14" data-name="Rectangle 14" transform="translate(13 550)" fill="#fff" stroke="#707070" stroke-width="2">
        <rect width="350" height="139.312" rx="18" stroke="none"/>
        <rect x="1" y="1" width="348" height="137.312" rx="17" fill="none"/>
      </g>
      <text id="Description_of_the_product_in_question." data-name="Description of the
product in question." transform="translate(33 587)" fill="#707070" font-size="32" font-family="HelveticaNeue, Helvetica Neue"><tspan x="0" y="0">Description of the</tspan><tspan x="0" y="38">product in question.</tspan></text>
    </g>
    <g id="Group_29" data-name="Group 29">
      <text id="Deliver" transform="translate(129 530)" fill="#707070" font-size="32" font-family="HelveticaNeue-Bold, Helvetica Neue" font-weight="700"><tspan x="-106.048" y="0">Deliver</tspan></text>
      <g id="Rectangle_20" data-name="Rectangle 20" transform="translate(137 499)" fill="#fff" stroke="#707070" stroke-width="2">
        <rect width="38" height="38" stroke="none"/>
        <rect x="1" y="1" width="36" height="36" fill="none"/>
      </g>
    </g>
    <g id="Group_30" data-name="Group 30" transform="translate(188)">
      <g id="Rectangle_20-2" data-name="Rectangle 20" transform="translate(137 499)" fill="#f0f0f0" stroke="#707070" stroke-width="2">
        <rect width="38" height="38" stroke="none"/>
        <rect x="1" y="1" width="36" height="36" fill="none"/>
      </g>
      <g id="Group_32" data-name="Group 32">
        <text id="Pick_up" data-name="Pick up" transform="translate(129 530)" fill="#707070" font-size="32" font-family="HelveticaNeue-Bold, Helvetica Neue" font-weight="700"><tspan x="-113.76" y="0">Pick up</tspan></text>
        <g id="Group_31" data-name="Group 31" transform="translate(-1 1)">
          <line id="Line_9" data-name="Line 9" x2="12" y2="11" transform="translate(144.5 518.5)" fill="none" stroke="#707070" stroke-width="5"/>
          <line id="Line_10" data-name="Line 10" x1="14" y2="23" transform="translate(156.5 505.5)" fill="none" stroke="#707070" stroke-width="5"/>
        </g>
      </g>
    </g>
    <g id="Group_35" data-name="Group 35">
      <g id="Group_21" data-name="Group 21" transform="translate(0 43.589)">
        <g id="Rectangle_19" data-name="Rectangle 19" transform="translate(0 100)" fill="#fff" stroke="#707070" stroke-width="2">
          <rect width="375" height="100" stroke="none"/>
          <rect x="1" y="1" width="373" height="98" fill="none"/>
        </g>
        <g id="Group_13" data-name="Group 13" transform="translate(129 107.782)">
          <g id="Rectangle_17" data-name="Rectangle 17" transform="translate(0 31.374)" fill="#d7d7d7" stroke="#d7d7d7" stroke-width="1">
            <rect width="75.062" height="53.093" stroke="none"/>
            <rect x="0.5" y="0.5" width="74.062" height="52.093" fill="none"/>
          </g>
          <g id="Path_2" data-name="Path 2" transform="translate(75.062 31.374)" fill="#d7d7d7">
            <path d="M 41.60803604125977 52.28603363037109 L 0.5000042319297791 31.864013671875 L 0.5000042319297791 16.73054504394531 L 41.60803604125977 0.7311398386955261 L 41.60803604125977 52.28603363037109 Z" stroke="none"/>
            <path d="M 41.10802459716797 1.462272644042969 L 0.9999923706054688 17.07247543334961 L 0.9999923706054688 31.55411911010742 L 41.10802459716797 51.47933959960938 L 41.10802459716797 1.462272644042969 M 42.10802459716797 -3.814697265625e-06 L 42.10802459716797 53.09272384643555 L -7.62939453125e-06 32.17392730712891 L -7.62939453125e-06 16.38860702514648 L 42.10802459716797 -3.814697265625e-06 Z" stroke="none" fill="#d7d7d7"/>
          </g>
          <g id="Ellipse_1" data-name="Ellipse 1" fill="#d7d7d7" stroke="#d7d7d7" stroke-width="1">
            <circle cx="17.392" cy="17.392" r="17.392" stroke="none"/>
            <circle cx="17.392" cy="17.392" r="16.892" fill="none"/>
          </g>
          <g id="Ellipse_2" data-name="Ellipse 2" transform="translate(38.446)" fill="#d7d7d7" stroke="#d7d7d7" stroke-width="1">
            <circle cx="17.392" cy="17.392" r="17.392" stroke="none"/>
            <circle cx="17.392" cy="17.392" r="16.892" fill="none"/>
          </g>
        </g>
        <text id="New_Item_Image_Box" data-name="New Item Image Box" transform="translate(188 162)" fill="#707070" font-size="32" font-family="HelveticaNeue-Bold, Helvetica Neue" font-weight="700"><tspan x="-158.432" y="0">New Item Image Box</tspan></text>
      </g>
      <g id="Group_33" data-name="Group 33" transform="translate(1 17)">
        <line id="Line_11" data-name="Line 11" x2="19" y2="19" transform="translate(348.5 159.5)" fill="none" stroke="#707070" stroke-width="5"/>
        <line id="Line_12" data-name="Line 12" y1="19" x2="19" transform="translate(348.5 174.5)" fill="none" stroke="#707070" stroke-width="5"/>
      </g>
      <g id="Group_34" data-name="Group 34" transform="translate(374 370) rotate(180)">
        <line id="Line_11-2" data-name="Line 11" x2="19" y2="19" transform="translate(348.5 159.5)" fill="none" stroke="#707070" stroke-width="5"/>
        <line id="Line_12-2" data-name="Line 12" y1="19" x2="19" transform="translate(348.5 174.5)" fill="none" stroke="#707070" stroke-width="5"/>
      </g>
    </g>
    <text id="Dates_Available:" data-name="Dates Available:" transform="translate(23 383)" fill="#707070" font-size="32" font-family="HelveticaNeue, Helvetica Neue"><tspan x="0" y="0">Dates Available:</tspan></text>
    <text id="_Insert_the_price_above_" data-name="(Insert the price above)" transform="translate(350 362)" fill="#2f97be" font-size="24" font-family="HelveticaNeue, Helvetica Neue"><tspan x="-245.352" y="0">(Insert the price above)</tspan></text>
    <text id="_Select_dates_for_availability_from_the_dropdown_" data-name="(Select dates
for availability from
the dropdown)" transform="translate(360 423)" fill="#2f97be" font-size="24" font-family="HelveticaNeue, Helvetica Neue"><tspan x="-139.56" y="0">(Select dates</tspan><tspan x="-202.224" y="29">for availability from</tspan><tspan x="-156.024" y="58">the dropdown)</tspan></text>
    <g id="Group_36" data-name="Group 36" transform="translate(0 -3)">
      <g id="Rectangle_21" data-name="Rectangle 21" transform="translate(25 390)" fill="#fff" stroke="#707070" stroke-width="2">
        <rect width="119.351" height="106" stroke="none"/>
        <rect x="1" y="1" width="117.351" height="104" fill="none"/>
      </g>
      <text id="_March_S_M_T_W_T_F_S_1_2_3_4_5_6_7_8_9_10_11_12_13_14_15_16_17_18_19_20_21_22_23_24_25_26_27_28_29_30_31_" data-name="&lt;             March         &gt;
S   M   T   W   T   F   S
1   2
3    4    5    6    7   8   9
10  11 12  13  14 15 16
17  18 19  20  21 22 23
24 25  26  27  28 29 30
31                                 " transform="translate(136.291 405)" fill="#707070" font-size="10" font-family="HelveticaNeue, Helvetica Neue"><tspan x="-101.32" y="0" xml:space="preserve">&lt;             March         &gt;</tspan><tspan x="-98.19" y="12" xml:space="preserve">S   M   T   W   T   F   S</tspan><tspan x="-19.46" y="24" xml:space="preserve">1   2</tspan><tspan x="-100.08" y="36" xml:space="preserve">3    4    5    6    7   8   9</tspan><tspan x="-102.86" y="48" xml:space="preserve">10  11 12  13  14 15 16</tspan><tspan x="-102.86" y="60" xml:space="preserve">17  18 19  </tspan><tspan y="60" xml:space="preserve" fill="#c90000">20  21 22 23</tspan><tspan fill="#c90000"><tspan x="-102.86" y="72" xml:space="preserve">24 25  26  27</tspan><tspan y="72" xml:space="preserve" fill="#707070">  28 29 30</tspan></tspan><tspan x="-102.86" y="84" xml:space="preserve">31                                 </tspan></text>
    </g>
  </g>
</svg>
