<svg xmlns="http://www.w3.org/2000/svg" xmlns:xlink="http://www.w3.org/1999/xlink" width="375" height="812" viewBox="0 0 375 812">
  <defs>
    <clipPath id="clip-iPhone_X_XS_5">
      <rect width="375" height="812"/>
    </clipPath>
  </defs>
  <g id="iPhone_X_XS_5" data-name="iPhone X/XS – 5" clip-path="url(#clip-iPhone_X_XS_5)">
    <rect width="375" height="812" fill="#fff"/>
    <g id="Group_1" data-name="Group 1">
      <g id="Path_1" data-name="Path 1" fill="#f0f0f0">
        <path d="M 374 49 L 1 49 L 1 1 L 374 1 L 374 49 Z" stroke="none"/>
        <path d="M 2 2 L 2 48 L 373 48 L 373 2 L 2 2 M 0 0 L 375 0 L 375 50 L 0 50 L 0 0 Z" stroke="none" fill="#707070"/>
      </g>
      <g id="Rectangle_2" data-name="Rectangle 2" fill="#f0f0f0" stroke="#707070" stroke-width="2">
        <rect width="100" height="50" stroke="none"/>
        <rect x="1" y="1" width="98" height="48" fill="none"/>
      </g>
      <text id="LOGO" transform="translate(16 34)" fill="#707070" font-size="24" font-family="HelveticaNeue, Helvetica Neue"><tspan x="0" y="0">LOGO</tspan></text>
      <line id="Line_1" data-name="Line 1" x1="40" transform="translate(319.5 25.5)" fill="none" stroke="#707070" stroke-width="5"/>
      <line id="Line_2" data-name="Line 2" x1="40" transform="translate(319.5 14.5)" fill="none" stroke="#707070" stroke-width="5"/>
      <line id="Line_3" data-name="Line 3" x1="40" transform="translate(319.5 36.5)" fill="none" stroke="#707070" stroke-width="5"/>
    </g>
    <g id="Group_2" data-name="Group 2">
      <g id="Rectangle_3" data-name="Rectangle 3" transform="translate(0 50)" fill="#f0f0f0" stroke="#707070" stroke-width="2">
        <rect width="188" height="50" stroke="none"/>
        <rect x="1" y="1" width="186" height="48" fill="none"/>
      </g>
      <g id="Rectangle_4" data-name="Rectangle 4" transform="translate(187 50)" fill="#fcfcfc" stroke="#707070" stroke-width="2">
        <rect width="188" height="50" stroke="none"/>
        <rect x="1" y="1" width="186" height="48" fill="none"/>
      </g>
      <text id="Rent" transform="translate(69 84)" fill="#707070" font-size="24" font-family="HelveticaNeue, Helvetica Neue"><tspan x="0" y="0">Rent</tspan></text>
      <text id="Rent_Out" data-name="Rent Out" transform="translate(233 84)" fill="#707070" font-size="24" font-family="HelveticaNeue, Helvetica Neue"><tspan x="0" y="0">Rent Out</tspan></text>
    </g>
    <g id="Group_4" data-name="Group 4" transform="translate(-5 143)">
      <g id="Path_7" data-name="Path 7" transform="translate(28 294)" fill="#f0f0f0">
        <path d="M 295 69 L 35 69 C 30.40958404541016 69 25.95704078674316 68.10116577148438 21.76595878601074 66.32854461669922 C 17.71741676330566 64.61612701416016 14.08120822906494 62.16445922851562 10.95837497711182 59.0416259765625 C 7.835541725158691 55.91879272460938 5.383874893188477 52.28258514404297 3.67145824432373 48.23404312133789 C 1.898833274841309 44.0429573059082 1 39.59041595458984 1 35 C 1 30.40958404541016 1.898833274841309 25.95704078674316 3.67145824432373 21.76595878601074 C 5.383874893188477 17.71741676330566 7.835541725158691 14.08120822906494 10.95837497711182 10.95837497711182 C 14.08120822906494 7.835541725158691 17.71741676330566 5.383874893188477 21.76595878601074 3.67145824432373 C 25.95704078674316 1.898833274841309 30.40958404541016 1 35 1 L 295 1 C 299.5904235839844 1 304.04296875 1.898833274841309 308.2340393066406 3.67145824432373 C 312.2825927734375 5.383874893188477 315.9187927246094 7.835541725158691 319.0416259765625 10.95837497711182 C 322.1644592285156 14.08120822906494 324.6161193847656 17.71741676330566 326.3285522460938 21.76595878601074 C 328.1011657714844 25.95704078674316 329 30.40958404541016 329 35 C 329 39.59041595458984 328.1011657714844 44.0429573059082 326.3285522460938 48.23404312133789 C 324.6161193847656 52.28258514404297 322.1644592285156 55.91879272460938 319.0416259765625 59.0416259765625 C 315.9187927246094 62.16445922851562 312.2825927734375 64.61612701416016 308.2340393066406 66.32854461669922 C 304.04296875 68.10116577148438 299.5904235839844 69 295 69 Z" stroke="none"/>
        <path d="M 35 2 C 30.54415893554688 2 26.22262573242188 2.87225341796875 22.15554809570312 4.592498779296875 C 18.22616577148438 6.254459381103516 14.69677734375 8.634166717529297 11.66549682617188 11.66550064086914 C 8.6341552734375 14.69679260253906 6.25445556640625 18.22616577148438 4.592498779296875 22.15554046630859 C 2.87225341796875 26.22262573242188 2 30.54416656494141 2 35 C 2 39.45583343505859 2.87225341796875 43.77737426757812 4.592498779296875 47.84445953369141 C 6.25445556640625 51.77383422851562 8.6341552734375 55.30320739746094 11.66549682617188 58.33449935913086 C 14.69677734375 61.3658332824707 18.22616577148438 63.74554061889648 22.15554809570312 65.40750122070312 C 26.22262573242188 67.12774658203125 30.54415893554688 68 35 68 L 295 68 C 299.4558410644531 68 303.7773742675781 67.12774658203125 307.8444519042969 65.40750122070312 C 311.7738342285156 63.74554061889648 315.30322265625 61.3658332824707 318.3345031738281 58.33449935913086 C 321.3658447265625 55.30320739746094 323.7455444335938 51.77383422851562 325.4075012207031 47.84445953369141 C 327.1277465820312 43.77737426757812 328 39.45583343505859 328 35 C 328 30.54416656494141 327.1277465820312 26.22262573242188 325.4075012207031 22.15554046630859 C 323.7455444335938 18.22616577148438 321.3658447265625 14.69679260253906 318.3345031738281 11.66550064086914 C 315.30322265625 8.634166717529297 311.7738342285156 6.254459381103516 307.8444519042969 4.592498779296875 C 303.7773742675781 2.87225341796875 299.4558410644531 2 295 2 L 35 2 M 35 0 L 295 0 C 314.3299560546875 0 330 15.67004013061523 330 35 C 330 54.3299560546875 314.3299560546875 70 295 70 L 35 70 C 15.6700439453125 70 0 54.3299560546875 0 35 C 0 15.67004013061523 15.6700439453125 0 35 0 Z" stroke="none" fill="#707070"/>
      </g>
      <text id="Back_to_your_list" data-name="Back to your list" transform="translate(193 341)" fill="#707070" font-size="32" font-family="HelveticaNeue-Bold, Helvetica Neue" font-weight="700"><tspan x="-123.84" y="0">Back to your list</tspan></text>
    </g>
    <g id="Group_35" data-name="Group 35" transform="translate(0 134)">
      <g id="Group_21" data-name="Group 21" transform="translate(0 43.589)">
        <text id="Your_item_has_now_been_added_to_your_Rent_Out_list." data-name="Your item has now
been added to your
Rent Out list." transform="translate(188 105)" fill="#707070" font-size="32" font-family="HelveticaNeue, Helvetica Neue"><tspan x="-131.872" y="0">Your item has now</tspan><tspan x="-140.192" y="38">been added to your</tspan><tspan x="-93.072" y="76">Rent Out list.</tspan></text>
        <text id="Congrats_" data-name="Congrats!" transform="translate(188 25)" fill="#707070" font-size="32" font-family="HelveticaNeue-Bold, Helvetica Neue" font-weight="700"><tspan x="-74.976" y="0">Congrats!</tspan></text>
      </g>
    </g>
    <g id="Group_37" data-name="Group 37" transform="translate(-5 285)">
      <g id="Path_7-2" data-name="Path 7" transform="translate(28 294)" fill="#f0f0f0">
        <path d="M 295 109 L 35 109 C 30.47541618347168 109 26.07804107666016 107.6020431518555 21.92995834350586 104.8450012207031 C 17.87924957275391 102.1526641845703 14.23379135131836 98.28654479980469 11.09491634368896 93.35399627685547 C 7.93512487411499 88.38858032226562 5.452541828155518 82.59983062744141 3.716125011444092 76.14858245849609 C 1.913833379745483 69.45262145996094 1 62.33720779418945 1 55 C 1 47.66279220581055 1.913833379745483 40.5473747253418 3.716125011444092 33.85141754150391 C 5.452541828155518 27.40016746520996 7.93512487411499 21.61141586303711 11.09491634368896 16.64599990844727 C 14.23379135131836 11.71345806121826 17.87924957275391 7.847333431243896 21.92995834350586 5.15500020980835 C 26.07804107666016 2.397958278656006 30.47541618347168 1 35 1 L 295 1 C 299.5245971679688 1 303.9219665527344 2.397958278656006 308.0700378417969 5.15500020980835 C 312.1207580566406 7.847333431243896 315.7662048339844 11.71345806121826 318.9050903320312 16.64599990844727 C 322.0648803710938 21.61141586303711 324.5474548339844 27.40016746520996 326.2838745117188 33.85141754150391 C 328.086181640625 40.5473747253418 329 47.66279220581055 329 55 C 329 62.33720779418945 328.086181640625 69.45262145996094 326.2838745117188 76.14858245849609 C 324.5474548339844 82.59983062744141 322.0648803710938 88.38858032226562 318.9050903320312 93.35399627685547 C 315.7662048339844 98.28654479980469 312.1207580566406 102.1526641845703 308.0700378417969 104.8450012207031 C 303.9219665527344 107.6020431518555 299.5245971679688 109 295 109 Z" stroke="none"/>
        <path d="M 35 2 C 30.67584228515625 2 26.46466064453125 3.341705322265625 22.48348999023438 5.987831115722656 C 18.54983520507812 8.602371215820312 15.00201416015625 12.36891937255859 11.93856811523438 17.18287658691406 C 8.833343505859375 22.06258392333984 6.391754150390625 27.75812530517578 4.6817626953125 34.11133575439453 C 2.902252197265625 40.72254180908203 2 47.75054168701172 2 55 C 2 62.24945831298828 2.902252197265625 69.27745819091797 4.6817626953125 75.888671875 C 6.391754150390625 82.24187469482422 8.833343505859375 87.93741607666016 11.93856811523438 92.81712341308594 C 15.00201416015625 97.63108062744141 18.54983520507812 101.3976287841797 22.48348999023438 104.0121688842773 C 26.46466064453125 106.6582946777344 30.67584228515625 108 35 108 L 295 108 C 299.3241577148438 108 303.5353393554688 106.6582946777344 307.5165100097656 104.0121688842773 C 311.4501647949219 101.3976287841797 314.9979858398438 97.63108062744141 318.0614013671875 92.81712341308594 C 321.1666564941406 87.93741607666016 323.6082458496094 82.24187469482422 325.3182373046875 75.888671875 C 327.0977478027344 69.27745819091797 328 62.24945831298828 328 55 C 328 47.75054168701172 327.0977478027344 40.72254180908203 325.3182373046875 34.11133575439453 C 323.6082458496094 27.75812530517578 321.1666564941406 22.06258392333984 318.0614013671875 17.18287658691406 C 314.9979858398438 12.36891937255859 311.4501647949219 8.602371215820312 307.5165100097656 5.987831115722656 C 303.5353393554688 3.341705322265625 299.3241577148438 2 295 2 L 35 2 M 35 0 L 295 0 C 314.3299560546875 0 330 24.62433624267578 330 55 C 330 85.37567138671875 314.3299560546875 110 295 110 L 35 110 C 15.6700439453125 110 0 85.37567138671875 0 55 C 0 24.62433624267578 15.6700439453125 0 35 0 Z" stroke="none" fill="#707070"/>
      </g>
      <text id="Check_out_other_Items_on_the_site" data-name="Check out other
Items on the site" transform="translate(193 342)" fill="#707070" font-size="32" font-family="HelveticaNeue-Bold, Helvetica Neue" font-weight="700"><tspan x="-122.992" y="0">Check out other</tspan><tspan x="-127.072" y="39">Items on the site</tspan></text>
    </g>
    <text id="_-_or_-" data-name="- or -" transform="translate(188 556)" fill="#707070" font-size="32" font-family="HelveticaNeue, Helvetica Neue"><tspan x="-35.856" y="0">- or -</tspan></text>
    <text id="_This_button_above_allows_users_to_quickly_access_the_Rent_section_instead_" data-name="(This button above allows users
to quickly access the “Rent”
section instead)" transform="translate(188 731)" fill="#2f97be" font-size="24" font-family="HelveticaNeue, Helvetica Neue"><tspan x="-169.344" y="0">(This button above allows users</tspan><tspan x="-151.812" y="29">to quickly access the “Rent”</tspan><tspan x="-84.456" y="58">section instead)</tspan></text>
  </g>
</svg>
